<?xml version="1.0" encoding="utf-8"?>
<!-- Generator: Adobe Illustrator 25.2.0, SVG Export Plug-In . SVG Version: 6.00 Build 0)  -->
<svg version="1.1" id="Ñëîé_1" xmlns="http://www.w3.org/2000/svg" xmlns:xlink="http://www.w3.org/1999/xlink" x="0px" y="0px"
	 viewBox="0 0 2456.9 2200" style="enable-background:new 0 0 2456.9 2200;" xml:space="preserve">
<style type="text/css">
	.st0{fill:url(#SVGID_1_);}
	.st1{fill:#221F1F;}
	.st2{fill:#020202;}
	.st3{fill:url(#SVGID_2_);}
	.st4{opacity:0.5;fill:#606060;}
	.st5{fill:#C1BFC0;}
	.st6{fill:#262626;}
	.st7{fill:url(#SVGID_3_);}
	.st8{fill:none;stroke:#221F1F;stroke-width:7.8846;stroke-miterlimit:10;}
	.st9{fill:#FFFFFF;}
	.st10{fill:none;stroke:#000000;stroke-width:3.9423;stroke-miterlimit:10;}
	.st11{fill:none;stroke:#000000;stroke-width:7.8846;stroke-miterlimit:10;}
</style>
<g>
	<g>
		<linearGradient id="SVGID_1_" gradientUnits="userSpaceOnUse" x1="919.3999" y1="282.5107" x2="1454.7401" y2="282.5107">
			<stop  offset="0" style="stop-color:#B62B2E"/>
			<stop  offset="1" style="stop-color:#E2262C"/>
		</linearGradient>
		<path class="st0" d="M919.4,416.03c0,0,20.99-252.08,86.65-275.37s428.1,0,428.1,0l20.58,156.9v137.15L919.4,416.03z"/>
		<polygon class="st1" points="1118.49,277.9 1127.19,224.21 1297.15,224.21 1297.15,264.94 		"/>
		<path class="st1" d="M2060.04,1193.18c0,513.18-455.39,852.58-809.36,876.39c-269.77,18.15-917.54-363.27-917.54-876.45
			s352.94-929.13,841.78-929.13S2060.04,680,2060.04,1193.18z"/>
		<polygon class="st2" points="1666.46,1887.43 2216.12,1899.26 2216.12,1732.35 1871.32,1664.09 		"/>
		<linearGradient id="SVGID_2_" gradientUnits="userSpaceOnUse" x1="1282.7838" y1="2012.2803" x2="1282.7838" y2="263.9883">
			<stop  offset="0" style="stop-color:#9E9C9B"/>
			<stop  offset="1" style="stop-color:#C1BFC0"/>
		</linearGradient>
		<path class="st3" d="M2091.75,1173.18c0,502.13-618.35,839.42-764.69,839.1c-253.37-0.55-853.25-337.03-853.25-839.16
			s330.67-909.13,788.67-909.13S2091.75,671.05,2091.75,1173.18z"/>
		<g>
			<polygon class="st4" points="1877.11,823.98 1877.11,1870.5 2189.26,1870.5 2189.26,745.71 1877.11,745.71 			"/>
			<polygon class="st5" points="1903.96,823.98 1903.96,1870.5 2216.12,1870.5 2216.12,745.71 1903.96,745.71 			"/>
		</g>
		<polygon class="st6" points="280.57,841.76 280.72,1911.05 717.74,1911.07 717.74,763.05 280.57,763.05 		"/>
		<polygon class="st5" points="383.77,886.77 383.89,1843.02 717.74,1843.03 717.74,816.38 383.77,816.38 		"/>
		<path d="M1074.08,1101.05l62.89,117.7c-8.72,110.13-37.7,191.02-72.11,191.02c-41.31,0-74.79-116.56-74.79-260.35
			c0-106.68,18.43-198.38,44.81-238.59c30.89,17.65,56.67,30.03,77.89,38.68c15.26,44.36,25.37,109.49,26.72,182.91L1074.08,1101.05
			z"/>
		<path d="M1593.51,1119.51l62.89,110.05c-8.72,99.5-37.7,172.58-72.11,172.58c-41.31,0-74.79-105.3-74.79-235.21
			c0-75.46,11.3-142.61,28.87-185.65c19.48-6.98,43.69-17.52,73.27-33.33c26.34,32.55,45.39,110.74,47.29,203.61L1593.51,1119.51z"
			/>
		<path class="st4" d="M291.66,569.28c0,0,848.73-386.39,1085.58,40.1c0,0,163.9-312.23,702.55-123.17c0,0,69.1,12.73,113.99,74.48
			c44.89,61.75,20.67,418.21,20.67,418.21s-94.5-229.16-669.77-110.12c0,0-113.99,101.85-167.15,162.96
			c-53.16,61.11-82.1-127.95-240.98-215.79s-820.38,88.47-844.9,127.62C267.15,982.72,291.66,569.28,291.66,569.28z"/>
		<linearGradient id="SVGID_3_" gradientUnits="userSpaceOnUse" x1="280.7637" y1="692.4975" x2="2220.9741" y2="692.4975">
			<stop  offset="1.331947e-07" style="stop-color:#B62B2E"/>
			<stop  offset="1" style="stop-color:#E2262C"/>
		</linearGradient>
		<path class="st7" d="M291.66,535.52c0,0,848.73-386.39,1085.58,40.1c0,0,163.9-312.23,702.55-123.17c0,0,69.1,12.73,113.99,74.48
			c44.89,61.75,20.67,418.21,20.67,418.21s-94.5-229.16-669.77-110.12c0,0-113.99,101.85-167.15,162.96
			c-53.16,61.11-82.1-127.95-240.98-215.79s-820.38,88.47-844.9,127.62C267.15,948.96,291.66,535.52,291.66,535.52z"/>
		<polyline class="st8" points="1282.78,1376.68 1371.03,1487.12 1327.46,1563.38 		"/>
		<path d="M1064.17,1692.5c0,0,410.29,85.23,472.05,0c0,0-94.29,145.7-184.88,138.03C1260.75,1822.86,1064.17,1692.5,1064.17,1692.5
			z"/>
		<path class="st9" d="M1480.65,1720.09c0,0-147.07,24.5-302.34-9.05l-58.47,8.84l116.24,57.13c0,0,115.15,45.24,160.39,29.61
			c61.6-21.28,100.71-66.4,100.71-66.4L1480.65,1720.09z"/>
		<path class="st10" d="M1436.93,1839.15c-3.96,9.22-69.2,31.35-69.2,31.35l-63.05-12.81"/>
		<path class="st11" d="M1470.97,1009.41c0,0,14.47,4.39,50.54-12.85c14.61-6.98,32.77-17.52,54.96-33.33
			c5.06-3.6,10.32-7.48,15.8-11.66c88.85-67.68,108.81-13.8,108.81-13.8"/>
		<path class="st11" d="M930.54,903.4c0,0,19.96-53.88,108.81,13.8c5.48,4.18,10.74,8.05,15.8,11.66
			c22.18,15.81,40.35,26.35,54.96,33.33c36.08,17.24,50.54,12.85,50.54,12.85"/>
		<path d="M1119.98,1704.04c0,0,48.49,37.71,114.15,40.25"/>
		<path d="M1498.04,1719.47c0,0-16.12,24.13-37.94,25.76"/>
	</g>
</g>
</svg>
